<svg xmlns="http://www.w3.org/2000/svg" width="480" height="417" class="">
    <defs>
        <style/>
    </defs>
    <style>@keyframes animation-gauge{0%{stroke-dasharray:0 329}}@keyframes animation-rainbow{0%,to{color:#7f00ff;fill:#7f00ff}14%{color:#a933ff;fill:#a933ff}29%{color:#007fff;fill:#007fff}43%{color:#00ff7f;fill:#00ff7f}57%{color:#ff0;fill:#ff0}71%{color:#ff7f00;fill:#ff7f00}86%{color:red;fill:red}}svg{font-family:-apple-system,BlinkMacSystemFont,Segoe UI,Helvetica,Arial,sans-serif,Apple Color Emoji,Segoe UI Emoji;font-size:14px;color:#777}h2{margin:8px 0 2px;padding:0;color:#0366d6;font-weight:400;font-size:16px}h2 svg{fill:currentColor}section&gt;.field{margin-left:5px;margin-right:5px}.field{display:flex;align-items:center;margin-bottom:2px;white-space:nowrap}.field svg{margin:0 8px;fill:#959da5;flex-shrink:0}.row{display:flex;flex-wrap:wrap}.row section{flex:1 1 0}#metrics-end,.fill-width{width:100%}.rss{align-items:flex-start}.rss .infos{margin-bottom:3px}.rss .infos .date{font-size:10px;color:#666}:root{--color-calendar-graph-day-bg:#ebedf0;--color-calendar-graph-day-border:rgba(27,31,35,0.06);--color-calendar-graph-day-L1-bg:#9be9a8;--color-calendar-graph-day-L2-bg:#40c463;--color-calendar-graph-day-L3-bg:#30a14e;--color-calendar-graph-day-L4-bg:#216e39;--color-calendar-halloween-graph-day-L1-bg:#ffee4a;--color-calendar-halloween-graph-day-L2-bg:#ffc501;--color-calendar-halloween-graph-day-L3-bg:#fe9600;--color-calendar-halloween-graph-day-L4-bg:#03001c;--color-calendar-winter-graph-day-L1-bg:#0a3069;--color-calendar-winter-graph-day-L2-bg:#0969da;--color-calendar-winter-graph-day-L3-bg:#54aeff;--color-calendar-winter-graph-day-L4-bg:#b6e3ff;--color-calendar-graph-day-L4-border:rgba(27,31,35,0.06);--color-calendar-graph-day-L3-border:rgba(27,31,35,0.06);--color-calendar-graph-day-L2-border:rgba(27,31,35,0.06);--color-calendar-graph-day-L1-border:rgba(27,31,35,0.06)}</style>
    <style/>
    <foreignObject x="0" y="0" width="100%" height="100%">
        <div xmlns="http://www.w3.org/1999/xhtml" xmlns:xlink="http://www.w3.org/1999/xlink" class="items-wrapper">
            <section>
                <h2 class="field">
                    <svg xmlns="http://www.w3.org/2000/svg" viewBox="0 0 16 16" width="16" height="16">
                        <path fill-rule="evenodd" d="M3.267 1.457c.3.286.312.76.026 1.06A6.475 6.475 0 001.5 7a6.472 6.472 0 001.793 4.483.75.75 0 01-1.086 1.034 8.89 8.89 0 01-.276-.304l.569-.49-.569.49A7.971 7.971 0 010 7c0-2.139.84-4.083 2.207-5.517a.75.75 0 011.06-.026zm9.466 0a.75.75 0 011.06.026A7.975 7.975 0 0116 7c0 2.139-.84 4.083-2.207 5.517a.75.75 0 11-1.086-1.034A6.475 6.475 0 0014.5 7a6.475 6.475 0 00-1.793-4.483.75.75 0 01.026-1.06zM8.75 8.582a1.75 1.75 0 10-1.5 0v5.668a.75.75 0 001.5 0V8.582zM5.331 4.736a.75.75 0 10-1.143-.972A4.983 4.983 0 003 7c0 1.227.443 2.352 1.177 3.222a.75.75 0 001.146-.967A3.483 3.483 0 014.5 7c0-.864.312-1.654.831-2.264zm6.492-.958a.75.75 0 00-1.146.967c.514.61.823 1.395.823 2.255 0 .86-.31 1.646-.823 2.255a.75.75 0 101.146.967A4.983 4.983 0 0013 7a4.983 4.983 0 00-1.177-3.222z"/>
                    </svg>
                    BBC Chinese RSS feed
                </h2>
                <div class="row fill-width">
                    <section>
                        <div class="field rss">
                            <svg xmlns="http://www.w3.org/2000/svg" viewBox="0 0 16 16" width="16" height="16">
                                <path fill-rule="evenodd" d="M8 5.5a2.5 2.5 0 100 5 2.5 2.5 0 000-5zM4 8a4 4 0 118 0 4 4 0 01-8 0z"/>
                            </svg>
                            <div class="infos">
                                <div class="title">中國「兩會」五大焦點：經濟增速、「十五五」開局、科技自主、高層人事安排及國防預算</div>
                                <div class="date">3 Mar 2026</div>
                            </div>
                        </div>
                        <div class="field rss">
                            <svg xmlns="http://www.w3.org/2000/svg" viewBox="0 0 16 16" width="16" height="16">
                                <path fill-rule="evenodd" d="M8 5.5a2.5 2.5 0 100 5 2.5 2.5 0 000-5zM4 8a4 4 0 118 0 4 4 0 01-8 0z"/>
                            </svg>
                            <div class="infos">
                                <div class="title">分析：伊朗政權架構仍在運作，未來幾天將顯示它是否能夠撐下去</div>
                                <div class="date">2 Mar 2026</div>
                            </div>
                        </div>
                        <div class="field rss">
                            <svg xmlns="http://www.w3.org/2000/svg" viewBox="0 0 16 16" width="16" height="16">
                                <path fill-rule="evenodd" d="M8 5.5a2.5 2.5 0 100 5 2.5 2.5 0 000-5zM4 8a4 4 0 118 0 4 4 0 01-8 0z"/>
                            </svg>
                            <div class="infos">
                                <div class="title">美以「斬首」行動背後是長達數月的追蹤和計劃</div>
                                <div class="date">2 Mar 2026</div>
                            </div>
                        </div>
                        <div class="field rss">
                            <svg xmlns="http://www.w3.org/2000/svg" viewBox="0 0 16 16" width="16" height="16">
                                <path fill-rule="evenodd" d="M8 5.5a2.5 2.5 0 100 5 2.5 2.5 0 000-5zM4 8a4 4 0 118 0 4 4 0 01-8 0z"/>
                            </svg>
                            <div class="infos">
                                <div class="title">為何美國以色列此刻出手？伊朗進入「生存模式」，結局仍充滿變數</div>
                                <div class="date">28 Feb 2026</div>
                            </div>
                        </div>
                        <div class="field rss">
                            <svg xmlns="http://www.w3.org/2000/svg" viewBox="0 0 16 16" width="16" height="16">
                                <path fill-rule="evenodd" d="M8 5.5a2.5 2.5 0 100 5 2.5 2.5 0 000-5zM4 8a4 4 0 118 0 4 4 0 01-8 0z"/>
                            </svg>
                            <div class="infos">
                                <div class="title">杜拜：中東樞紐在伊朗攻擊下陷入困境，機場碼頭和著名酒店現場直擊</div>
                                <div class="date">2 Mar 2026</div>
                            </div>
                        </div>
                        <div class="field rss">
                            <svg xmlns="http://www.w3.org/2000/svg" viewBox="0 0 16 16" width="16" height="16">
                                <path fill-rule="evenodd" d="M8 5.5a2.5 2.5 0 100 5 2.5 2.5 0 000-5zM4 8a4 4 0 118 0 4 4 0 01-8 0z"/>
                            </svg>
                            <div class="infos">
                                <div class="title">美以聯手攻擊伊朗致哈梅內伊喪生以及伊朗的報復性打擊——我們目前知道什麼？</div>
                                <div class="date">2 Mar 2026</div>
                            </div>
                        </div>
                        <div class="field rss">
                            <svg xmlns="http://www.w3.org/2000/svg" viewBox="0 0 16 16" width="16" height="16">
                                <path fill-rule="evenodd" d="M8 5.5a2.5 2.5 0 100 5 2.5 2.5 0 000-5zM4 8a4 4 0 118 0 4 4 0 01-8 0z"/>
                            </svg>
                            <div class="infos">
                                <div class="title">伊朗：哈梅內伊的鐵腕統治結束</div>
                                <div class="date">1 Mar 2026</div>
                            </div>
                        </div>
                        <div class="field rss">
                            <svg xmlns="http://www.w3.org/2000/svg" viewBox="0 0 16 16" width="16" height="16">
                                <path fill-rule="evenodd" d="M8 5.5a2.5 2.5 0 100 5 2.5 2.5 0 000-5zM4 8a4 4 0 118 0 4 4 0 01-8 0z"/>
                            </svg>
                            <div class="infos">
                                <div class="title">分析：這是一個危險時刻，但美國與以色列認為機不可失</div>
                                <div class="date">1 Mar 2026</div>
                            </div>
                        </div>
                        <div class="field rss">
                            <svg xmlns="http://www.w3.org/2000/svg" viewBox="0 0 16 16" width="16" height="16">
                                <path fill-rule="evenodd" d="M8 5.5a2.5 2.5 0 100 5 2.5 2.5 0 000-5zM4 8a4 4 0 118 0 4 4 0 01-8 0z"/>
                            </svg>
                            <div class="infos">
                                <div class="title">霍爾木茲海峽附近船隻遇襲，油價飆升</div>
                                <div class="date">2 Mar 2026</div>
                            </div>
                        </div>
                        <div class="field rss">
                            <svg xmlns="http://www.w3.org/2000/svg" viewBox="0 0 16 16" width="16" height="16">
                                <path fill-rule="evenodd" d="M8 5.5a2.5 2.5 0 100 5 2.5 2.5 0 000-5zM4 8a4 4 0 118 0 4 4 0 01-8 0z"/>
                            </svg>
                            <div class="infos">
                                <div class="title">伊朗遭攻擊致航班被取消，新的旅遊警告發佈</div>
                                <div class="date">2 Mar 2026</div>
                            </div>
                        </div>
                    </section>
                </div>
            </section>
        </div>
        <div xmlns="http://www.w3.org/1999/xhtml" id="metrics-end"></div>
    </foreignObject>
</svg>